<?xml version="1.0" encoding="utf-8"?>
<!-- Generator: Adobe Illustrator 19.2.1, SVG Export Plug-In . SVG Version: 6.00 Build 0)  -->
<svg version="1.0" id="Layer_1" xmlns="http://www.w3.org/2000/svg" xmlns:xlink="http://www.w3.org/1999/xlink" x="0px" y="0px"
	 viewBox="0 0 565.2 517" style="enable-background:new 0 0 565.2 517;" xml:space="preserve">
<style type="text/css">
	.st0{fill:#FFD800;}
	.st1{fill:#F8E9B7;}
</style>
<g>
	<g>
		<path class="st0" d="M373.2,286.6c0,0-69-42.8-70.8-42.8c-1.9,0-16.6,10.5-19.9,10.5s-18-10.5-19.9-10.5
			c-1.8,0-70.8,42.8-70.8,42.8s47-11.1,48.2-9.9S223,315.6,223,315.6s39-25.2,40.4-25.1s19.2,77.5,19.2,77.5s17.9-77.4,19.2-77.5
			s40.4,25.1,40.4,25.1S323.7,278,325,276.7S373.2,286.6,373.2,286.6z"/>
	</g>
	<g>
		<g>
			<path class="st0" d="M447.6,148.9c0,0-57.5,0.5-57.5-1.2s125.8-90.8,125.8-90.8l-144.8,50.2l1-10.2l-51.5,35l36,36.2l-47.8-9.3
				l-3.7,21.7l-14.6-24l11,9.2l2.8-14.2l32,5.3l-26.7-27l45.3-30.3l-40.5,9.6l8-16.6l-21.2,12l27.6-79.7L282.6,92l-46.3-67.3
				l27.6,79.7l-21.2-12l8,16.6l-40.5-9.6l45.3,30.3l-26.7,27l32-5.3l2.8,14.2l11-9.2l-14.6,24l-3.7-21.7l-47.8,9.3l36-36.2l-51.5-35
				l1,10.2L49.4,56.9c0,0,125.8,89,125.8,90.8s-57.5,1.2-57.5,1.2s94.8,32.2,94.8,35.2c0,1.2-18,9-18,9l88.2,50.8l88.2-50.8
				c0,0-18-7.8-18-9C352.9,181.1,447.6,148.9,447.6,148.9z M282.6,227.4l-7.1-88.9c4.7-2.1,4.2-6.9,7.1-6.9c2.9,0,2.4,4.9,7.1,6.9
				L282.6,227.4z"/>
		</g>
	</g>
	<polygon class="st1" points="360.9,69 349.9,81.9 527,33.6 517.3,50.3 530,47.5 547,18.2 	"/>
	<polygon class="st1" points="204.3,69 215.3,81.9 38.3,33.6 47.9,50.3 35.2,47.5 18.2,18.2 	"/>
	<polygon class="st1" points="456.6,174.2 445.5,174.2 282.6,455.7 119.7,174.2 108.6,174.2 144.5,236.2 127.5,230.9 282.6,498.8 
		437.7,230.9 420.7,236.2 	"/>
</g>
</svg>
