<?xml version="1.0" encoding="utf-8"?>
<!-- Generator: Adobe Illustrator 19.2.1, SVG Export Plug-In . SVG Version: 6.00 Build 0)  -->
<svg version="1.0" id="Layer_1" xmlns="http://www.w3.org/2000/svg" xmlns:xlink="http://www.w3.org/1999/xlink" x="0px" y="0px"
	 viewBox="0 0 467.6 491.9" style="enable-background:new 0 0 467.6 491.9;" xml:space="preserve">
<style type="text/css">
	.st0{fill:#3D84C5;}
	.st1{fill:#9AD7F6;}
</style>
<g>
	<path class="st0" d="M75.2,40.3c0,0,14.8,2.8,31.2,11s25,26,27.1,32.6s9.6,27.1,16.2,41.4s14.8,24.1,16.6,24.8s11,1,27,10.4
		s17.1,18.1,17.1,21.5s-7.5,19.6-15.1,30.2s-12.9,15.4-17.6,15.4s-11.4-3.8-11.4-5.6s15.7-23.5,13.6-24.2
		c-0.5-0.2-5.9,6.1-11.3,11.9s-10.4,9.8-13.6,9.8s-16.9-6.8-16.9-9s23.8-18.5,21.9-20.2c-1.1-0.9-7.5,3.5-16.4,8.8
		s-11.9,7.5-14.2,7.5s-14-8-14-9.1c0-0.5,7.4-5.3,15.3-9.2c9.3-4.6,17.1-8.9,16.7-9.6c-0.4-0.8-8.1,2.8-21,6s-17.9,4.4-19.4,3
		s-4-3.5-6-6.6s-3.4-6.2-3-7.2s34-6.2,32.9-7.9c-0.6-0.9-9.9-1-19.2-1.5c-8.1-0.5-16.3-1.3-18.2-2.1c-4-1.8-12.9-18.1-11.8-19.8
		s44,4.4,43.9,2.5s-16-3.5-31-6.9s-19.1-5.6-25.9-15s-11.6-19.2-10.6-20.6s55.5,19.9,56.1,18.1s-18.5-9.5-35-15.9
		s-23.8-9.9-26.2-13.1s-12.4-22-10.8-23.5s65.8,28.5,66,26.5s-25.1-13.4-40.1-21S39.6,58.2,37.3,55.8S20.8,37.2,18.2,18.2
		c0,0,5,5,27.8,16.2s71.6,35.9,72.4,34.6s-6-9.9-15.8-15.5S75.2,40.3,75.2,40.3z"/>
	<path class="st0" d="M189.8,116.4c0,0,8.7,23.8,10.5,26.2c1.8,2.3,31.3,16.3,31.3,16.3s-16.3-29.8-18.5-32.2
		C211,124.4,189.8,116.4,189.8,116.4z"/>
	<path class="st0" d="M233.8,87.4c0,0-14.7,35.2-14.7,38.2s14.7,31.2,14.7,31.2s14.7-28.2,14.7-31.2S233.8,87.4,233.8,87.4z"/>
	<path class="st0" d="M277.8,116.4c0,0-8.7,23.8-10.5,26.2c-1.8,2.3-31.3,16.3-31.3,16.3s16.3-29.8,18.5-32.2
		C256.6,124.4,277.8,116.4,277.8,116.4z"/>
	<path class="st0" d="M392.4,40.3c0,0-14.8,2.8-31.2,11s-25,26-27.1,32.6s-9.6,27.1-16.2,41.4s-14.8,24.1-16.6,24.8s-11,1-27,10.4
		s-17.1,18.1-17.1,21.5s7.5,19.6,15.1,30.2s12.9,15.4,17.6,15.4s11.4-3.8,11.4-5.6s-15.7-23.5-13.6-24.2c0.5-0.2,5.9,6.1,11.3,11.9
		s10.4,9.8,13.6,9.8s16.9-6.8,16.9-9s-23.8-18.5-21.9-20.2c1.1-0.9,7.5,3.5,16.4,8.8s11.9,7.5,14.2,7.5s14-8,14-9.1
		c0-0.5-7.4-5.3-15.3-9.2c-9.3-4.6-17.1-8.9-16.7-9.6c0.4-0.8,8.1,2.8,21,6s17.9,4.4,19.4,3s4-3.5,6-6.6s3.4-6.2,3-7.2
		s-34-6.2-32.9-7.9c0.6-0.9,9.9-1,19.2-1.5c8.1-0.5,16.3-1.3,18.2-2.1c4-1.8,12.9-18.1,11.8-19.8s-44,4.4-43.9,2.5s16-3.5,31-6.9
		s19.1-5.6,25.9-15s11.6-19.2,10.6-20.6s-55.5,19.9-56.1,18.1s18.5-9.5,35-15.9s23.8-9.9,26.2-13.1s12.4-22,10.8-23.5
		s-65.8,28.5-66,26.5s25.1-13.4,40.1-21s28.6-15.5,30.9-17.9s16.5-18.6,19.1-37.6c0,0-5,5-27.8,16.2s-71.6,35.9-72.4,34.6
		s6-9.9,15.8-15.5S392.4,40.3,392.4,40.3z"/>
	<path class="st0" d="M247,175.7c0-11.1,5.8-22.5,5.8-22.5s-10.5,5.3-19,9.8c-8.5-4.5-19-9.8-19-9.8s5.8,11.4,5.8,22.5
		c0,14.5-19.2,39.2-19.2,58.7c0,6.7,6.3,13.3,14.8,22.7s17.5,19.7,17.5,19.7s9-10.3,17.5-19.7s14.8-16,14.8-22.7
		C266.1,214.9,247,190.2,247,175.7z M233.8,178.6c0,0-4.5-5.9-4.5-8.1c0-2.2,1.8-2.7,4.5-2.7c2.7,0,4.5,0.5,4.5,2.7
		C238.3,172.7,233.8,178.6,233.8,178.6z"/>
	<path class="st0" d="M363.7,296.3c-14.2-17-28.1-20.2-40.6-20.2s-31.5,9.8-45,9.8s-23.5-5.9-29.4-15.8l-14.9,15.8
		c0,0-5.4-6.2-6.8-7.8c0.5,2.4,4.4,17.7,16.2,31c12.9,14.5,26.8,18.8,44.8,18.8s28.1-8.6,53.5-8.6s39.9,9.9,39.9,47.2
		c0,0,1.6-5.4,1.6-19.2S377.9,313.3,363.7,296.3z"/>
	<path class="st0" d="M340.6,325.9c0,0,35.2-2.1,35.2,33.6s-34.2,66.9-62,76.3c-32.5,11-65.5-4.5-92.8-30.7s-51.8-29.3-68.2-20
		s-18.5,32-12.5,46.5c0,0-5.3-3.8-8.3-12.7c0,0-2.3,21.8-21.8,21.8c-8.2,0-11.5-7.3-11.5-7.3s9.7,5.2,17.5-3.2
		c7.8-8.3,3.3-30.5,9-46c5.7-15.5,23-26.2,46.2-26.2c40.8,0,50.2,28.7,90.2,28.7S331.5,348.4,340.6,325.9z"/>
	<polygon class="st1" points="233.8,72.7 316.4,104.4 321.8,93.2 233.8,59.4 145.8,93.2 151.2,104.4 	"/>
	<path class="st1" d="M138.7,360.3c1.2-0.7,2.4-1.3,3.7-1.9l-44.8-51.1V190.4l-21.8-33.8v136.5l60.2,68.7
		C136.9,361.4,137.7,360.8,138.7,360.3z"/>
	<path class="st1" d="M256.5,437.3l-22.7,25.6l-66.7-76.2c-2.7,0.3-5.3,1-7.8,2l74.4,85l30.1-33.4
		C261.5,439.4,259,438.4,256.5,437.3z"/>
	<polygon class="st1" points="375.8,302.7 380.5,311 397.6,292.1 397.6,145.5 375.8,182.2 	"/>
</g>
</svg>
