<?xml version="1.0" encoding="utf-8"?>
<!-- Generator: Adobe Illustrator 19.2.1, SVG Export Plug-In . SVG Version: 6.00 Build 0)  -->
<svg version="1.0" id="Layer_1" xmlns="http://www.w3.org/2000/svg" xmlns:xlink="http://www.w3.org/1999/xlink" x="0px" y="0px"
	 viewBox="0 0 475.8 477.6" style="enable-background:new 0 0 475.8 477.6;" xml:space="preserve">
<style type="text/css">
	.st0{fill:#EE3624;}
	.st1{fill:#F8B4B7;}
</style>
<g>
	<path class="st0" d="M455.3,64.1c0,0-0.5,9.4-2.1,13.2c-1.6,3.8-4.9,5.3-6.6,4.5c-1.7-0.8-1.3-8.2,0.7-13.6c0,0-3.2,1.2-4.6,5.6
		c-1.3,4.3-3.5,13.4-8.3,19.4c-4.8,6-9.4,10.7-10.2,10c-0.8-0.7,2.1-5,2.8-8.2c0.8-3.2-0.1-6.4,2.7-8.8c2.8-2.4,6.2-5.9,6.9-10.2
		c0.8-4.3,1.2-6.1,3.8-7.5c2.6-1.4,5.8-5.8,5.6-8.7c-0.2-2.9-3.2-4.6-2.7-6.9s4.3-6.8,6.4-8.1c2.1-1.3,3.8-2.8,3.8-3.3
		c0-0.6-1.5-1.5-3.5-1.3s-2.8,1.6-3.1,2.8s-3.6,0.1-4.5,1.1c-0.9,1-1.2,7.8-3.3,7.5c-2.1-0.3-2.2-6.1-1.6-8.8
		c0.7-2.7-0.2-6.8-2.8-10.6c-2.6-3.8-8.1-4.6-5.1-13.9c0,0-2.1,2.3-2.4,6.6c-0.3,4.2,2.3,7.3,3.2,9.8c0.9,2.5,0.8,5.5-1,6.5
		s-3,2.8-3.2,6s2.4,5.6,1.3,8.8c-1.1,3.2-3.1,5.8-4.1,2.3c0,0-1.1,1.4-1.8,3.9s-2.9,3.1-3.6,0.4s0.6-11.4-1.6-15.4s-6.4-2.7-8.5-4.7
		s0.2-6.8-2.2-9.6s-4.9-2.1-6.1-3.5s-2.8-2.4-5.8-2.9c0,0,2.3,1.5,2.8,4.1s0.5,4,2.3,6s7.8,9.9,9.4,15.1s2.2,13.8-0.2,25
		s-10.9,30.6-32.2,54.5s-52.8,47.5-77.2,63.6s-29.5,19.2-35.1,22s-7.1,7.4-10,7.4c-2.9,0-4.4-3.4-2.1-7.1s3.9-7.4,3.9-11.9
		c0-5.8-3.8-10.5-6.9-12.5c-3.2-2-6.8-1-12-6.5c-5.2-5.5-8.6-13.8-10-21.8s0.9-8.1,2.2-9.2s0.6-10.1,1.7-13.3
		c1.1-3.2,4.1-3.2,6.7-2.2s3-0.8,3.8-3.7c0.8-2.8,3.1-4.7,3.1-4.7c1.6,6.7,1.2,9.2,0,15.3s-5.9,10.4-5.6,16.9s5.5,11.2,5.8,11.2
		c0.3-0.1-0.3-3.2,0.2-6.9s3.5-7.2,3.5-7.2c0.5,4.2,2.5,7.1,3.7,10.6c1.2,3.5,1.6,7.1-0.5,9.5c-2.1,2.4-5.8,1.8-5.8,1.8
		s3.2,3,6.5,2.8c2.8-0.1,4-2.5,7.1-3.7c3.1-1.2,4-3.4,4.9-7.2c0.9-3.8,4.7-4.7,4.7-8.6s-2-6.1-3.4-10c-1.4-3.9-0.7-8.8-0.1-11.5
		s-1.2-2.2-2.6,0.1s-2.2,5-2,8c0.1,2-1.2,2.9-2.8,0.5c-1.6-2.4-3.2-2-3.2-9.6s3.1-19.9,2.7-24.8c-0.4-4.9-4.1-6.5-5.7-11.2
		s0.1-18.5-1-18.6s-3.2,5.1-4.2,5.1s-2.1-0.5-3.6-4.8s-1.2-9,0-10.6s1.8-5.4,1.2-5.6s-5.4,2.4-7.2,5.2s-1.4,13.9,0,17
		s1.4,13.2,0.5,18.4s-6.6,8.8-10.7,10s-5.5,3.5-5.7,9.5s-1.2,8.2-4.9,9.9s-6.4,3-6.4,7.5s3.1,13.5,3.8,19.6s2.5,10.9,6.2,14.9
		s6.4,7,6.4,9.5s-4.4,5-4.4,10.8c0,4.5,1.6,8.1,3.9,11.9s0.8,7.1-2.1,7.1s-4.4-4.6-10-7.4s-10.6-5.9-35.1-22s-55.9-39.8-77.3-63.6
		S70.1,87.8,67.7,76.6s-1.9-19.8-0.2-25s7.6-13.1,9.4-15.1s1.8-3.4,2.3-6s2.8-4.1,2.8-4.1c-3,0.4-4.6,1.4-5.8,2.9s-3.7,0.8-6.1,3.5
		s-0.1,7.6-2.2,9.6s-6.3,0.7-8.5,4.7s-0.9,12.7-1.6,15.4s-3,2.2-3.6-0.4s-1.8-3.9-1.8-3.9c-1,3.5-3.1,0.9-4.1-2.3
		c-1.1-3.2,1.5-5.6,1.3-8.8s-1.4-5-3.2-6s-1.9-4-1-6.5c0.9-2.5,3.6-5.6,3.2-9.8c-0.3-4.2-2.4-6.6-2.4-6.6c3,9.3-2.5,10.2-5.1,13.9
		c-2.6,3.8-3.4,7.9-2.8,10.6c0.7,2.7,0.5,8.4-1.6,8.8c-2.1,0.3-2.4-6.5-3.3-7.5c-0.9-1-4.2,0.1-4.5-1.1s-1.1-2.6-3.1-2.8
		s-3.5,0.8-3.5,1.3c0,0.6,1.7,2,3.8,3.3c2.1,1.3,5.9,5.8,6.4,8.1s-2.5,4-2.7,6.9c-0.2,2.9,3,7.2,5.6,8.7c2.6,1.4,3.1,3.2,3.8,7.5
		c0.8,4.3,4.2,7.8,6.9,10.2c2.8,2.4,1.9,5.7,2.7,8.8c0.8,3.2,3.7,7.5,2.8,8.2c-0.8,0.7-5.4-4-10.2-10c-4.8-6-7-15.1-8.3-19.4
		c-1.3-4.3-4.6-5.6-4.6-5.6c2,5.4,2.3,12.8,0.7,13.6c-1.7,0.8-5-0.8-6.6-4.5c-1.6-3.8-2.1-13.2-2.1-13.2c-2.2,4.8-2.8,9.4-1.7,13.5
		c1.2,4.1,0.4,11.8,0.7,19.3c0.2,7.6,5.1,13.1,8.1,13.2c3,0.2,5.1,1.8,5.4,3.6s-0.2,3.7-4.2,3.9s-7-0.4-7.2-0.1
		c-0.2,0.3,1.2,2.2,4.2,2.7s5.1,2,5.1,3s-3.3,0.9-3.3,2.3s-0.7,2.6-2,3.2c-1.3,0.6-3.5,3.6-1.2,7.3c2.3,3.8,4.5,2.4,6.8,5.4
		s1.1,6.7,2.2,8.7c1.1,2,6,1.8,10.2,1.5s4,2.2,1.3,4.6c-2.7,2.3-4.7,1-7.2,2.7c-2.6,1.7-3,5.1-9.1,3.9c-6.1-1.2-8.2-7.2-8.2-7.2
		c1.2,11.6,5.6,11,8.8,15.1c3.2,4.1,6,4.2,7.2,6.3c1.2,2.2,0.5,4.2-4.8,4.4c-5.3,0.2-7.6-1.3-7.6-1.3c3.7,5.1,8.6,4.1,11.7,5.8
		c1.7,1,7.2,1,14.9-0.4c7.6-1.4,18.2,0,22.4,1.2c4.2,1.2,4.1,7.8-0.8,8.7s-11.2,0-15.5-1.9c-4.2-1.9-6-4.2-6.6-3
		c-0.6,1.2,0.8,3.2,2.7,6.2c1.9,3.1,5.2,4.4,6,5.8c0.8,1.3-0.3,5.1,1.2,7c1.6,1.9,6.7,1.5,7.8,1.7c1.1,0.2,0.6,1.6,0.8,4.2
		c0.2,2.7,0.8,5.4,0.8,5.4c0.5-1.9,2.2-4.1,5.5-3.6s6.2,4.9,8.6,4.9s3.3-0.8,6.2-3.4s8.2-3.7,17-3.6s17.4,2.2,18.8,5.6
		s0.2,8.9-2.4,10.1s-3.9-1.6-6.8-3.1s-6.2-0.6-8.6,1.4s-5.5,3-7.6,3.8s-4.4,2.3-4.4,2.3c1.6,0.1,5.4-1.3,10.9-0.8s8.5,4.5,12,7.1
		s5.1,3.4,5.9,6.8s3.8,5.7,12.4,5.7s9.8-1.5,10.9-0.9s0.6,2.6,2,3.9s4.7,0.4,4.6,3.9c0,2.4-3.4,3.9-6.2,2.6s-5.7-2.6-9.2-0.9
		s-6.2,6.8-5.2,8.6s6.2-0.2,8.1,1s-0.9,6.3,1.2,8.6s4.8,1.7,7.3,2.1s3.1,2.9,4.8,3.9s2.1,1,2.9,3.8s4.8,5.3,8.5,5.3s5.8-1.2,8.3-3.7
		s6.4-3.4,7.5-2.6s-1.3,4.1-0.2,4.7s2.8-1.8,6.6-1.6s3.4,6.9,8,6.9c8.1,0,8.8-6.9,16.8-6.9s12.6,8.2,24.8,8.2s16.7-8.2,24.8-8.2
		c8.1,0,8.7,6.9,16.8,6.9c4.6,0,4.1-6.7,8-6.9s5.6,2.2,6.6,1.6s-1.3-3.9-0.2-4.7s4.9,0.2,7.5,2.6s4.6,3.7,8.3,3.7s7.8-2.6,8.5-5.3
		s1.2-2.8,2.9-3.8s2.3-3.5,4.8-3.9s5.2,0.2,7.3-2.1s-0.7-7.4,1.2-8.6s7.2,0.8,8.1-1s-1.7-6.9-5.2-8.6s-6.4-0.4-9.2,0.9
		s-6.1-0.2-6.2-2.6c-0.1-3.4,3.2-2.5,4.6-3.9s0.9-3.3,2-3.9s2.3,0.9,10.9,0.9s11.6-2.4,12.4-5.7s2.4-4.1,5.9-6.8s6.6-6.6,12-7.1
		s9.2,0.9,10.9,0.8c0,0-2.3-1.5-4.4-2.3s-5.2-1.9-7.6-3.8s-5.8-2.9-8.6-1.4s-4.1,4.2-6.8,3.1s-3.8-6.7-2.4-10.1s9.9-5.4,18.8-5.6
		s14.1,1,17,3.6s3.9,3.4,6.2,3.4s5.3-4.5,8.6-4.9s5,1.7,5.5,3.6c0,0,0.7-2.8,0.8-5.4c0.2-2.7-0.3-4.1,0.8-4.2
		c1.1-0.2,6.2,0.2,7.8-1.7c1.6-1.9,0.5-5.7,1.2-7c0.8-1.3,4.1-2.7,6-5.8c1.9-3.1,3.2-5,2.7-6.2c-0.6-1.2-2.3,1.1-6.6,3
		c-4.2,1.9-10.6,2.8-15.5,1.9s-5-7.5-0.8-8.7c4.2-1.2,14.8-2.6,22.4-1.2c7.6,1.4,13.1,1.4,14.9,0.4c3.1-1.8,8-0.8,11.7-5.8
		c0,0-2.2,1.5-7.6,1.3c-5.3-0.2-6-2.2-4.8-4.4c1.2-2.2,4-2.2,7.2-6.3c3.2-4.1,7.5-3.5,8.8-15.1c0,0-2.2,6.1-8.2,7.2
		c-6.1,1.2-6.5-2.2-9.1-3.9c-2.6-1.7-4.6-0.3-7.2-2.7c-2.7-2.3-2.9-4.8,1.3-4.6s9.2,0.5,10.2-1.5c1.1-2-0.2-5.7,2.2-8.7
		s4.5-1.7,6.8-5.4c2.3-3.8,0.2-6.8-1.2-7.3c-1.3-0.6-2-1.8-2-3.2s-3.3-1.3-3.3-2.3s2.1-2.5,5.1-3s4.3-2.3,4.2-2.7
		c-0.2-0.3-3.2,0.3-7.2,0.1s-4.5-2.2-4.2-3.9s2.4-3.4,5.4-3.6c3-0.2,7.8-5.7,8.1-13.2c0.2-7.6-0.5-15.2,0.7-19.3
		C458.2,73.5,457.6,68.9,455.3,64.1z M237.9,250l-7.1-34.3c4.7-1.5,4.2-4.9,7.1-4.9c2.9,0,2.4,3.5,7.1,4.9L237.9,250z"/>
	<path class="st0" d="M222.3,307.8c0,0,8.4-1.6,13.6-1.6s6.5,1.4,14,1.2c7.5-0.1,12.7,0,14.7,3.2s4.2,4.4,8.6,8.3s5.9,7.7,6.2,12.6
		s0.1,7.2,1.6,9.2s1.5,7.1-4.2,13.7s-14.2,12.6-17.4,12.6c-3.2,0.1-4.1-2.1-4.1-2.1s2.2,1.8,6.2-2.4c4-4.2,9.1-9.6,6.3-12.1
		s-7.3,2.7-10.9,6.6c-3.6,3.9-10.1,7.8-12.4,8.4s-3.9,2.8-3.9,6s-0.7,5-2.8,5.2c-2.1,0.2-3.5,2.6-3.5,6.3s0.8,6.4,3.2,4.7
		s3.1-2.2,3.7-1.9s-0.6,2.9-1.8,4.7s-2.6,5.4-0.7,5.4s3.4-0.6,3.3,1.6s0.3,5.4,3.4,5.6s5-3.3,5-3.3s0.5,2.2,0.4,2.9s2.2-0.2,2.2-0.2
		s-1.8,6.6-12.1,6.6s-17.2-4.9-19.4-9.1s-2.6-9-3.8-9s-5.6,4.2-6.1,6.9s0.1,7.1-0.9,11.1s-0.6,10.5,2.1,13.5s5.3,1.9,7.3,4.1
		s4,4.3,9.1,4.2s6.5-5.1,5.4-7.8s-2.9-3.7-3.7-4.2c0,0,4.1-1.2,7.9,0.5s4.9,4,5.3,6.6s1.3,4.7,2.3,4.1s2-2.6,3.8-1.2s2,3.7,4.3,3.6
		c2.3-0.1,6.2-3.2,7.5-5.5s1.9-4.4,3.1-5.1s1.8-3.6-0.1-4.6s-3-1.4-3.4-3.4c-0.3-2,1.7-2.2,2.6-1.2s3.2,2.4,4,1.8
		c0.8-0.7-0.1-3.6,0.8-4.1s1.9-1.3,2-3.4c0.1-2.1-1.2-3.4-2.1-3.8c-0.8-0.4,1.2-2.8-4.5-10.2c0,0,6.9,5.4,9.2,15.8
		s-4.4,24.2-11.8,29.9c-7.4,5.6-14.9,10.9-27.5,11s-16.6-2.6-17.8-3.6s-4.8-1.1-5.8,0.6s3.6,12.1,11.2,8.1c0,0-2.5,4.9-6.5,4.9
		s-7.5-2.6-9.5-6.1s-1.8-5.9-3.4-6.1s-2.5,3.6-5.5,3.8s-5.6-2.6-6.9-6.2s-1.2-7.4-4.2-7.5s-5.6-0.5-7-2s-0.4-8.5-1.8-9.9
		s-1.5-3.6-1.8-5.6s-1.4-3.2-2.4-6s-1.7-5.1-4.7-4.7c-3.1,0.4-7.3,0-8.6-1.6s-1.8-3.8-1.4-4.2s4.4,0.9,5,0.1s-1.7-4.8-2.2-10.1
		c0,0,4.2,4.8,7.2,4.7s2.8-1.9,6.4-4.7s7.3-3.4,8.1-3.9s-1.1-6.5,2.1-9.5c3.2-2.9,7.9-4.6,8.7-7.9c0,0-10.2,1.2-12.6-2.2
		c0,0,3.8,0.4,5.8-1.4c0,0-3.2-1-4.4-4.2c0,0,5.4,2.2,9.4,0.3s3.6-3.8,4.2-7.9c0.7-4.1,7.8-9,13.4-11.4c5.7-2.4,8.9-3.1,11.9-5
		c3-1.9,8.3-5.9,8.7-9.3c0.3-3.4-2-5.5-2-8.5s2.5-4.2,4.7-4.8c2.2-0.6,2.7-4,0.2-5.8S226.8,308,222.3,307.8z"/>
	<path class="st0" d="M216.3,309.4c0,0,1.8,3.1,1.8,7.5c0,4.4-2.3,8.9-4.5,11.1c0,0,3.7-1.4,4.6-2.1c1.5-1.1,2.4-1.3,1.8,1.5
		c0,0,3.2-3.8,4.5-6.1s1.7-4.4,0.6-5.1c-1.5-1-0.4-3.2-2.2-4.6C221,310.3,218.9,309.7,216.3,309.4z"/>
	<path class="st1" d="M98.5,107.9c34.4-38,84.1-61.8,139.4-61.8c55.3,0,105,23.9,139.4,61.8l6.3-6.3c-36-39.6-88-64.4-145.8-64.4
		c-57.8,0-109.7,24.9-145.8,64.5L98.5,107.9z"/>
	<path class="st1" d="M149.9,400.4c-58.9-31.2-99.2-92.8-100-163.9l0,0c-3.1-0.7-6.1-1.5-8.9-2.6c0,0.1,0,0.1,0,0.2
		c0,23.2,4,45.4,11.4,66.1c-13.4-14.1-24.6-29.8-33-46.7C27,325,77.4,385.3,147.3,413.7C147.7,408.9,148.6,404.4,149.9,400.4z"/>
	<path class="st1" d="M423.6,300.2c7.4-20.7,11.4-42.9,11.4-66.1c0-0.1,0-0.1,0-0.2c-2.9,1-5.9,1.9-9,2.6
		c-1.1,87.8-62.3,161.1-144.3,180.6c-0.4,3.7-1,7.3-2,10.5c94.5-16.3,167.4-86.8,176.9-174.1C448.1,270.4,437,286.1,423.6,300.2z"/>
</g>
</svg>
